<svg width="96" height="96" viewBox="0 0 96 96" fill="none" xmlns="http://www.w3.org/2000/svg" role="img">
  <title>GenAI Labs brainmark</title>
  <defs>
    <linearGradient id="grad" x1="0%" y1="0%" x2="100%" y2="100%">
      <stop offset="0%" stop-color="#9AB5FF"/>
      <stop offset="50%" stop-color="#C9A9FF"/>
      <stop offset="100%" stop-color="#F0C0FF"/>
    </linearGradient>
    <filter id="blur" x="-50%" y="-50%" width="200%" height="200%">
      <feGaussianBlur stdDeviation="6" result="coloredBlur" />
      <feMerge>
        <feMergeNode in="coloredBlur" />
        <feMergeNode in="SourceGraphic" />
      </feMerge>
    </filter>
  </defs>
  <circle cx="48" cy="48" r="44" stroke="#E1E7FF" stroke-width="2" fill="#F8FAFF"/>
  <path d="M32 34c0-6 5-11 11-11 3 0 6 1 8 3 2-2 5-3 8-3 6 0 11 5 11 11 5 1 9 6 9 11s-4 10-9 11c0 6-5 11-11 11-3 0-6-1-8-3-2 2-5 3-8 3-6 0-11-5-11-11-5-1-9-6-9-11s4-10 9-11z" fill="url(#grad)" filter="url(#blur)"/>
</svg>
